<svg width="31" height="32" viewBox="0 0 31 32" fill="none" xmlns="http://www.w3.org/2000/svg">
<g clip-path="url(#clip0_426_9966)">
<path d="M16.0649 32.0634H23.2377C27.1601 32.0634 30.3512 28.6989 30.3512 24.5634V7.56319C30.3512 3.42764 27.1601 0.0631105 23.2377 0.0631105H16.0649C12.1426 0.0631105 8.95145 3.42764 8.95145 7.56319V8.8132C8.95145 9.50358 9.48223 10.0632 10.137 10.0632C10.7918 10.0632 11.3226 9.50358 11.3226 8.8132V7.56319C11.3226 4.80616 13.45 2.56314 16.0649 2.56314H23.2377C25.8527 2.56314 27.9801 4.80616 27.9801 7.56319V24.5634C27.9801 27.3204 25.8527 29.5634 23.2377 29.5634H16.0649C13.45 29.5634 11.3226 27.3204 11.3226 24.5634V23.3133C11.3226 22.623 10.7918 22.0633 10.137 22.0633C9.48223 22.0633 8.95145 22.623 8.95145 23.3133V24.5634C8.95145 28.6989 12.1426 32.0634 16.0649 32.0634Z" fill="#041E42"/>
<path d="M4.62436 22.0627C4.92834 22.0627 5.2322 21.9403 5.46381 21.6954C5.92619 21.2066 5.92518 20.4151 5.46155 19.9276L2.71758 17.0422C2.49451 16.8078 2.37175 16.4965 2.37175 16.1657C2.37175 15.836 2.49368 15.5258 2.71509 15.2917L5.45509 12.4545C5.92227 11.9707 5.92903 11.1793 5.47027 10.6868C5.01151 10.1943 4.2608 10.1871 3.79368 10.6708L1.0497 13.5121C1.04757 13.5143 1.04549 13.5165 1.04336 13.5187C0.370954 14.2256 0.0006375 15.1656 0.0006375 16.1657C0.000697205 17.1658 0.370955 18.1058 1.04342 18.8126L3.78721 21.6978C4.01852 21.9411 4.3215 22.0627 4.62436 22.0627ZM4.68363 16.0626C4.68363 15.3723 5.21442 14.8126 5.86922 14.8126H18.6735C19.3283 14.8126 19.8591 15.3723 19.8591 16.0626C19.8591 16.753 19.3283 17.3127 18.6735 17.3127H5.86922C5.21442 17.3127 4.68363 16.753 4.68363 16.0626Z" fill="#041E42"/>
</g>
<defs>
<clipPath id="clip0_426_9966">
<rect width="30.0573" height="31.6907" fill="white" transform="matrix(-1.00977 0 0 1.00977 30.3512 0)"/>
</clipPath>
</defs>
</svg>



